<svg xmlns="http://www.w3.org/2000/svg" width="1200" height="420" viewBox="0 0 1200 420">
<rect width="1200" height="420" fill="#ffffff"/>
<text x="600" y="38" font-family="Arial, sans-serif" font-size="26" font-weight="700" text-anchor="middle" fill="#111827">AMANAH v0.2 — Semantic Integrity Architecture</text>
<g font-family="Arial, sans-serif" font-size="17" fill="#111827" text-anchor="middle">
<rect x="40" y="145" rx="14" width="190" height="105" fill="#f3f4f6" stroke="#374151" stroke-width="2"/>
<text x="135" y="182"><tspan x="135">Ayah ID</tspan><tspan x="135" dy="25">Arabic source</tspan><tspan x="135" dy="25">Candidate English</tspan></text>
<rect x="285" y="145" rx="14" width="190" height="105" fill="#eef2ff" stroke="#374151" stroke-width="2"/>
<text x="380" y="185"><tspan x="380">Trusted reference</tspan><tspan x="380" dy="25">+ source verification</tspan></text>
<rect x="530" y="85" rx="14" width="200" height="105" fill="#ecfeff" stroke="#374151" stroke-width="2"/>
<text x="630" y="125"><tspan x="630">Fine-tuned</tspan><tspan x="630" dy="25">mDeBERTa classifier</tspan></text>
<rect x="530" y="230" rx="14" width="200" height="105" fill="#f0fdf4" stroke="#374151" stroke-width="2"/>
<text x="630" y="270"><tspan x="630">High-precision</tspan><tspan x="630" dy="25">semantic rules</tspan></text>
<rect x="785" y="145" rx="14" width="180" height="105" fill="#fff7ed" stroke="#374151" stroke-width="2"/>
<text x="875" y="185"><tspan x="875">Decision fusion</tspan><tspan x="875" dy="25">+ severity scoring</tspan></text>
<rect x="1020" y="125" rx="14" width="145" height="145" fill="#faf5ff" stroke="#374151" stroke-width="2"/>
<text x="1092" y="162"><tspan x="1092">PASS</tspan><tspan x="1092" dy="24">REVIEW</tspan><tspan x="1092" dy="24">CRITICAL</tspan><tspan x="1092" dy="24">ABSTAIN</tspan></text>
</g>
<g stroke="#6b7280" stroke-width="3" fill="none">
<path d="M230 197 H285"/><path d="M475 197 H510 V137 H530"/><path d="M475 197 H510 V282 H530"/>
<path d="M730 137 H760 V197 H785"/><path d="M730 282 H760 V197 H785"/><path d="M965 197 H1020"/>
</g>
<g fill="#6b7280"><polygon points="282,197 272,191 272,203"/><polygon points="527,137 517,131 517,143"/><polygon points="527,282 517,276 517,288"/><polygon points="782,197 772,191 772,203"/><polygon points="1017,197 1007,191 1007,203"/></g>
<text x="600" y="390" font-family="Arial, sans-serif" font-size="16" text-anchor="middle" fill="#4b5563">Structured decisions are authoritative; explanation layers may not override them.</text>
</svg>